<?xml version="1.0" encoding="UTF-8"?>
<svg width="512px" height="512px" viewBox="0 0 512 512" version="1.1" xmlns="http://www.w3.org/2000/svg" xmlns:xlink="http://www.w3.org/1999/xlink">
    <!-- Generator: Sketch 63 (92445) - https://sketch.com -->
    <title>scent</title>
    <desc>Created with Sketch.</desc>
    <g id="scent" stroke="none" stroke-width="1" fill="none" fill-rule="evenodd">
        <path d="M129.722353,358.802775 C114.778824,357.768806 101.123529,356.734838 99.32,356.476345 C97.5164706,356.476345 96.7435294,355.183885 97.5164706,353.632932 C98.5470588,352.081979 96.2282353,351.048011 92.6211765,351.048011 C88.4988235,351.048011 85.9223529,349.497058 85.9223529,347.170629 C85.9223529,345.102692 87.2105882,343.293247 88.4988235,343.293247 C94.4247059,343.293247 90.56,335.796975 83.0882353,333.212054 C78.7082353,331.661101 75.8741176,329.334672 76.6470588,328.042211 C77.6776471,326.749751 77.42,325.198798 76.3894118,324.681814 C75.1011765,324.423321 72.2670588,319.511971 69.9482353,314.342128 L65.5682353,304.77792 L73.04,297.023156 C78.1929412,292.111805 79.7388235,289.0099 77.42,288.234423 C75.8741176,287.717439 77.42,286.166486 81.2847059,285.132518 C85.4070588,284.098549 87.7258824,282.289104 86.9529412,280.996644 C86.18,279.704183 87.9835294,276.085293 90.8176471,272.983388 C93.9094118,269.881482 96.2282353,266.521085 96.2282353,265.745608 C96.2282353,264.71164 86.18,263.160687 74.0705882,262.38521 C61.4458824,261.351242 49.3364706,259.283305 45.9870588,256.956876 C39.0305882,252.56251 35.1658824,241.188856 41.0917647,243.515285 C44.1835294,244.549254 44.6988235,243.773777 43.4105882,239.896395 C41.3494118,233.692584 42.6376471,233.692584 66.5988235,238.345442 C76.6470588,240.413379 91.8482353,242.739809 100.350588,243.515285 C114.263529,244.807746 116.324706,244.290761 117.612941,240.154887 C118.643529,236.019013 115.551765,234.985045 89.0141176,231.107663 C72.7823529,228.781234 58.8694118,226.454804 58.3541176,225.93782 C57.8388235,225.420836 57.0658824,221.543454 56.5505882,217.666072 C56.0352941,212.754722 57.3235294,208.87734 61.1882353,206.033926 C67.8870588,200.864084 83.3458824,192.850828 83.3458824,194.40178 C83.3458824,195.177257 87.2105882,194.143288 92.1058824,192.075351 C97.2588235,189.748922 105.245882,188.973446 111.687059,189.748922 C127.661176,191.558367 245.148235,173.980902 303.376471,160.797804 C318.835294,157.178914 334.551765,155.110977 338.158824,155.886453 C341.765882,156.66193 351.041176,156.144945 358.512941,154.593993 C375.517647,151.492087 381.443529,154.593993 380.670588,166.226138 C380.412941,170.620505 381.443529,174.756379 382.989412,175.531855 C387.369412,178.633761 371.652941,184.837572 344.857647,190.524399 C330.687059,193.626304 306.983529,199.571623 292.04,203.707497 L264.987059,211.203769 L297.192941,211.203769 C314.970588,211.462261 352.071765,210.1698 379.64,208.618848 C424.212941,206.292418 430.138824,206.292418 432.715294,209.911308 C434.261176,212.237737 437.095294,214.047182 438.898824,214.047182 C441.475294,214.047182 441.475294,214.822659 438.641176,218.183056 C436.322353,221.02647 436.064706,222.577423 438.383529,224.128375 C443.794118,227.488773 437.610588,231.883139 416.225882,239.896395 C404.631765,244.549254 395.098824,249.202112 395.098824,250.494572 C395.098824,251.787033 393.037647,252.821002 390.718824,252.821002 C388.142353,252.821002 384.277647,254.113462 382.216471,255.405923 C377.836471,258.249336 426.274118,256.181399 441.990588,252.821002 C453.584706,250.494572 456.676471,252.56251 448.689412,257.215368 C443.278824,260.317273 443.794118,260.575766 454.615294,259.024813 C463.375294,257.990844 466.982353,258.507828 469.558824,261.609734 C471.62,263.936163 472.135294,265.745608 470.847059,265.745608 C469.558824,265.745608 470.331765,267.038069 472.392941,268.589022 C475.484706,270.915451 475.742353,271.690927 472.650588,272.724896 C470.331765,273.758864 470.074118,274.792833 472.135294,275.826801 C473.681176,276.86077 468.785882,280.996644 461.056471,285.132518 C451.523529,290.30236 447.143529,294.179742 447.401176,297.281648 C447.658824,300.383553 449.204706,301.417522 451.523529,300.642046 C454.1,299.608077 453.327059,301.417522 449.72,305.294904 C444.051765,311.498715 442.505882,315.117605 446.112941,314.600621 C453.327059,313.30816 454.872941,315.634589 448.947059,318.736495 C430.138824,329.07618 244.117647,357.768806 185.116471,359.578251 C169.657647,360.095235 144.665882,359.836743 129.722353,358.802775 Z" id="路径" fill="#FF2626" fill-rule="nonzero" transform="translate(256.511939, 256.650766) scale(-1, 1) rotate(-180.000000) translate(-256.511939, -256.650766) "></path>
    </g>
</svg>